<svg width="560" height="333" fill="none" xmlns="http://www.w3.org/2000/svg"><g filter="url('#filter0_b_11_1633')"><path d="M0 20C0 8.954 8.954 0 20 0h520c11.046 0 20 8.954 20 20v313H20c-11.046 0-20-8.954-20-20V20Z" fill="url('#paint0_linear_11_1633')"/><path d="M.6 20C.6 9.286 9.286.6 20 .6h520c10.714 0 19.4 8.686 19.4 19.4v312.4H20C9.286 332.4.6 323.714.6 313V20Z" stroke="url('#paint1_linear_11_1633')" stroke-width="1.2"/></g><defs><linearGradient id="paint0_linear_11_1633" x1="-150" y1="-104" x2="592" y2="355.5" gradientUnits="userSpaceOnUse"><stop stop-opacity=".6"/><stop offset=".214" stop-color="#D7504A" stop-opacity=".474"/><stop offset="1" stop-color="#D9D9D9" stop-opacity=".05"/></linearGradient><linearGradient id="paint1_linear_11_1633" x1="0" y1="0" x2="560" y2="333" gradientUnits="userSpaceOnUse"><stop stop-color="#fff" stop-opacity=".6"/><stop offset="1" stop-color="#fff" stop-opacity=".1"/></linearGradient><filter id="filter0_b_11_1633" x="-50" y="-50" width="660" height="433" filterUnits="userSpaceOnUse" color-interpolation-filters="sRGB"><feFlood flood-opacity="0" result="BackgroundImageFix"/><feGaussianBlur in="BackgroundImageFix" stdDeviation="25"/><feComposite in2="SourceAlpha" operator="in" result="effect1_backgroundBlur_11_1633"/><feBlend in="SourceGraphic" in2="effect1_backgroundBlur_11_1633" result="shape"/></filter></defs></svg>