<svg width="560" height="333" fill="none" xmlns="http://www.w3.org/2000/svg"><g filter="url('#filter0_b_11_1624')"><path d="M560 313c0 11.046-8.954 20-20 20H20c-11.046 0-20-8.954-20-20V0h540c11.046 0 20 8.954 20 20v293Z" fill="url('#paint0_linear_11_1624')"/><path d="M559.4 313c0 10.714-8.686 19.4-19.4 19.4H20C9.286 332.4.6 323.714.6 313V.6H540c10.714 0 19.4 8.686 19.4 19.4v293Z" stroke="url('#paint1_linear_11_1624')" stroke-width="1.2"/></g><defs><linearGradient id="paint0_linear_11_1624" x1="710" y1="437" x2="-32" y2="-22.5" gradientUnits="userSpaceOnUse"><stop stop-opacity=".6"/><stop offset=".214" stop-color="#D7504A" stop-opacity=".474"/><stop offset="1" stop-color="#D9D9D9" stop-opacity=".05"/></linearGradient><linearGradient id="paint1_linear_11_1624" x1="560" y1="333" x2="0" y2="0" gradientUnits="userSpaceOnUse"><stop stop-color="#fff" stop-opacity=".6"/><stop offset="1" stop-color="#fff" stop-opacity=".1"/></linearGradient><filter id="filter0_b_11_1624" x="-50" y="-50" width="660" height="433" filterUnits="userSpaceOnUse" color-interpolation-filters="sRGB"><feFlood flood-opacity="0" result="BackgroundImageFix"/><feGaussianBlur in="BackgroundImageFix" stdDeviation="25"/><feComposite in2="SourceAlpha" operator="in" result="effect1_backgroundBlur_11_1624"/><feBlend in="SourceGraphic" in2="effect1_backgroundBlur_11_1624" result="shape"/></filter></defs></svg>