<svg width="336" height="339" fill="none" xmlns="http://www.w3.org/2000/svg"><g filter="url('#filter0_b_11_1707')"><path d="M0 30C0 13.431 13.431 0 30 0h276c16.569 0 30 13.431 30 30v309H30c-16.569 0-30-13.431-30-30V30Z" fill="url('#paint0_linear_11_1707')"/><path d="M.6 30C.6 13.763 13.763.6 30 .6h276c16.237 0 29.4 13.163 29.4 29.4v308.4H30C13.763 338.4.6 325.237.6 309V30Z" stroke="url('#paint1_linear_11_1707')" stroke-width="1.2"/></g><defs><linearGradient id="paint0_linear_11_1707" x1="0" y1="0" x2="336" y2="339" gradientUnits="userSpaceOnUse"><stop stop-color="#FAFA05"/><stop offset="1" stop-color="#A35A2F" stop-opacity=".1"/></linearGradient><linearGradient id="paint1_linear_11_1707" x1="336" y1="339" x2="0" y2="0" gradientUnits="userSpaceOnUse"><stop stop-color="#fff" stop-opacity=".6"/><stop offset="1" stop-color="#fff" stop-opacity=".1"/></linearGradient><filter id="filter0_b_11_1707" x="-5" y="-5" width="346" height="349" filterUnits="userSpaceOnUse" color-interpolation-filters="sRGB"><feFlood flood-opacity="0" result="BackgroundImageFix"/><feGaussianBlur in="BackgroundImageFix" stdDeviation="2.5"/><feComposite in2="SourceAlpha" operator="in" result="effect1_backgroundBlur_11_1707"/><feBlend in="SourceGraphic" in2="effect1_backgroundBlur_11_1707" result="shape"/></filter></defs></svg>