<svg width="176" height="201" fill="none" xmlns="http://www.w3.org/2000/svg"><path d="M149.662 116.246c-8.489 34.051-42.982 54.774-77.042 46.283-34.044-8.489-54.77-42.98-46.276-77.028 8.486-34.056 42.979-54.78 77.027-46.29 34.057 8.488 54.781 42.983 46.29 77.035h.001Z" fill="#F7931A"/><path d="M116.137 91.765c1.265-8.46-5.175-13.006-13.982-16.04l2.857-11.457-6.976-1.738-2.781 11.156a289.028 289.028 0 0 0-5.59-1.315l2.802-11.23-6.971-1.738-2.859 11.454a231.372 231.372 0 0 1-4.454-1.046l.008-.037-9.62-2.401-1.855 7.45s5.175 1.185 5.066 1.258c2.825.705 3.336 2.575 3.25 4.057L71.779 93.19c.195.05.448.12.726.233-.233-.057-.481-.12-.738-.182l-4.561 18.286c-.346.858-1.222 2.146-3.196 1.657.07.101-5.071-1.265-5.071-1.265l-3.463 7.984 9.078 2.262c1.688.423 3.343.867 4.973 1.283l-2.887 11.59 6.968 1.738 2.859-11.466c1.903.516 3.75.993 5.559 1.442l-2.849 11.412 6.976 1.739 2.886-11.569c11.895 2.251 20.839 1.344 24.604-9.414 3.033-8.661-.151-13.657-6.409-16.915 4.558-1.051 7.991-4.049 8.907-10.24l-.003-.002Zm-15.938 22.346c-2.155 8.661-16.74 3.98-21.469 2.805l3.83-15.354c4.729 1.181 19.893 3.516 17.639 12.549Zm2.157-22.472c-1.966 7.879-14.105 3.876-18.042 2.895l3.472-13.926c3.938.981 16.619 2.814 14.571 11.031h-.001Z" fill="#fff"/><path d="M2.588 153.828V47.903L87.999 3.786l85.412 44.117v105.925l-85.412 44.118-85.411-44.118Z" stroke="#fff" stroke-width="5"/><path d="M87.603 199.534 1 154.801V47.351l86.603 44.733v107.45ZM88.397 199.534V92.084L175 47.351v107.451l-86.603 44.732ZM174.531 46.696 87.999 91.393 1.468 46.696 87.999 2l86.532 44.696Z" stroke="#fff"/></svg>