<svg width="4100" height="3560" fill="none" xmlns="http://www.w3.org/2000/svg"><path d="m528.283 2982.75 507.527 288.62L526.812 3560 14.868 3271.37l513.415-288.62ZM1541.98 2982.75l500.36 288.62L1540.53 3560l-504.72-288.63 506.17-288.62Z" fill="#D7504A"/><path d="m2553.72 2982.75 505.51 288.62L2552.25 3560l-509.91-288.63 511.38-288.62ZM3575.14 2982.75l509.99 288.62L3573.66 3560l-514.43-288.63 515.91-288.62Z" fill="#D7504A"/><path d="m3329.19 2852.99-250.59 143.47v226.67l446.95-256.8-196.36-113.34ZM3043.91 3003.14l-466.32-256.2v217.21l466.32 258.98v-219.99ZM2072.08 3003.14l466.32-256.2v217.21l-466.32 258.98v-219.99ZM2027.92 3003.14l-466.32-256.2v217.21l466.32 258.98v-219.99ZM1060.59 3003.14l466.77-256.2v217.21l-466.77 258.98v-219.99ZM770.813 2852.99l250.587 143.47v226.67l-446.949-256.8 196.362-113.34Z" fill="#fff"/><path d="M2298.25 2276.49v376.5l-64.45-25.28v-16.86l46.88 16.86v-342.79l-235.83-130.66-496.54 276.76v230.4l-527.3 292.22v-221.97L826.2 2844.06l-16.112-9.84 228.502-130.65v221.97l492.14-272.55v-233.21L2044.85 2136l253.4 140.49Z" fill="#fff"/><path d="M1797.24 2806.28v-379.8l64.39 25.7v19.99l-46.83-19.99v345.53l232.68 131.36 499.02-282.7v-231.31l523.9 296.98v205.61l200.49-114.23 19.02 10-237.07 132.78v-224.16l-488.78-278.42v211.31l-516.58 294.13-250.24-142.78Z" fill="#fff"/><g clip-path="url('#clip0_2_898')" fill-rule="evenodd" clip-rule="evenodd"><path opacity=".999" d="M2040.3 2323.46h19.19c55.3 3.14 102.91 23.15 142.83 60.01 40.37 39.25 62.25 86.7 65.64 142.36v18.63c-3.24 53.69-23.85 99.91-61.82 138.66-40.43 39.19-89.32 60.43-146.65 63.71h-19.19c-55.31-3.14-102.92-23.15-142.84-60.01-40.33-39.18-62.2-86.57-65.63-142.15v-19.05c3.42-55.58 25.3-102.96 65.63-142.15 39.92-36.86 87.53-56.86 142.84-60.01Z" fill="#D7504A"/><path d="M2047.27 2376.8c4.39-.31 8.17 1 11.34 3.92.91 1.02 1.82 2.05 2.73 3.07l37.29 63.93c5.67 12.93 5.31 25.7-1.09 38.32-27.26 45.86-54.52 91.73-81.78 137.59-7.66 11.66-18.6 18.33-32.82 20.01-24.85.14-49.71.14-74.57 0-9.79-1.47-13.96-6.93-12.54-16.41a26.46 26.46 0 0 1 2.83-6.56c45.65-78.04 91.3-156.09 136.95-234.13 2.6-4.75 6.49-8 11.66-9.74ZM2138.64 2531.12c4.53-.2 8.38 1.25 11.56 4.34.76.89 1.53 1.77 2.29 2.65 17.01 28.51 33.8 57.16 50.37 85.94 1.96 4.49 1.89 8.94-.21 13.34-1.89 2.7-4.47 4.5-7.75 5.4-1.5.39-3.03.68-4.57.85-33.88.14-67.75.14-101.62 0-10.81-2.04-14.77-8.21-11.89-18.53.7-1.84 1.57-3.61 2.62-5.29 16.05-26.71 32.04-53.45 47.97-80.23 2.65-4.23 6.39-7.05 11.23-8.47Z" fill="#fff"/></g><path d="m1568.3 683.304 396.1 1415.826L0 3228.12 1568.3 683.304ZM2052.7 1034.31l220.77 273.16-220.77 606.86-220.77-606.86 220.77-273.16ZM2532.87 678.312 2135.6 2098.33 4100 3228.12 2532.87 678.312Z" fill="#D7504A"/><path d="m1728.43 457.061 144.95 204.317-144.95 199.51-142.5-205.52 142.5-198.307ZM2376.52 457.061l142.5 198.307-142.5 205.52-144.95-199.51 144.95-204.317Z" fill="#fff"/><path d="m2052.48 0 323.72 457.061-323.72 457.061-323.72-457.061L2052.48 0Z" fill="#D7504A"/><defs><clipPath id="clip0_2_898"><path fill="#fff" transform="translate(1831.93 2323.57)" d="M0 0h436.132v423.374H0z"/></clipPath></defs></svg>