<svg width="837" height="742" fill="none" xmlns="http://www.w3.org/2000/svg"><path d="M469 474.21v78.281l-13.122-5.257v-3.505l9.543 3.505v-71.272l-48.014-27.165-101.1 57.543v47.904L208.945 615v-46.151l-39.664 23.367-3.281-2.044 46.524-27.165v46.151l100.204-56.667v-48.488L417.407 445 469 474.21Z" fill="#fff"/><path fill="#fff" d="M380 490h77v75h-77z"><animateTransform attributeName="transform" begin="0" dur="2.5s" type="rotate" from="0 418.5 527.5" to="360 418.5 527.5" repeatCount="indefinite"/></path><path d="M457 527.5c0 20.711-17.237 37.5-38.5 37.5S380 548.211 380 527.5s17.237-37.5 38.5-37.5 38.5 16.789 38.5 37.5Z" fill="#F9D44E"/><path d="M367 584.321v-78.947l13.114 5.343v4.155l-9.538-4.155v71.823l47.389 27.305 101.631-58.765V503l106.698 61.733v42.738l40.831-23.744 3.875 2.078-48.282 27.601V566.81l-99.545-57.874v43.925L417.965 614 367 584.321Z" fill="#fff"/><path d="m485 96 29.5 41.5-29.5 43-29.5-42L485 96Z" fill="#2C6957"/><path d="m419 216 45 57-45 126-45-126.25L419 216Z" fill="#1E3E69"/><path d="M108.5 621 212 681l-103.5 60L4 681l104.5-60ZM521 621l103 60-103.5 60L417 681l104-60ZM315 621l102 60-102 60-103-60 103-60ZM729 621l104 60-104 60-105-60 105-60Z" fill="#DB416E"/><path d="M217 625.262 312 572v45.161L217 671v-45.738ZM423 625l95-53v45l-95 54v-46ZM621 625l-95-53v45.172L621 671v-46ZM414 625.244 319 572v45.212L414 671v-45.756ZM158 594l51 30v47l-91-53.5 40-23.5ZM679 594l-51 30v47l91-53.5-40-23.5Z" fill="#62102C"/><path d="m517 142-81 295 400 235-319-530ZM320.5 143 401 437.5 1 672l319.5-529Z" fill="#69D4E1"/><path d="m419 1 66 95-66 95-66-95 66-95Z" fill="#6DE7B5"/><path d="m353 96 29.5 42.5L353 180l-29-42.75L353 96Z" fill="#2C6957"/></svg>