<svg width="183" height="199" fill="none" xmlns="http://www.w3.org/2000/svg"><path d="M91.5 36.89c-36.365 0-66.119 28.268-66.119 62.817 0 34.55 29.754 62.817 66.12 62.817 36.364 0 66.118-28.267 66.118-62.817 0-34.549-29.754-62.816-66.119-62.816Zm.413 14.527 39.672 21.593H78.689l13.224-21.593Zm14.464 39.653v16.49L91.5 115.412l-14.877-8.245v-16.49L91.5 82.434l14.877 8.637ZM87.781 52.987l-26.448 43.58L48.11 74.973l39.672-21.986ZM47.696 79.292l26.448 43.579H47.696V79.292Zm42.564 68.706-41.324-22.771h55.375l-14.05 22.771Zm4.96-2.748 26.447-43.579 13.224 21.593-39.672 21.986Zm40.084-25.912-26.448-43.58h26.448v43.58Z" fill="#1552EF"/><path d="M2.654 152.053V47.37L91.5 3.77l88.847 43.6v104.683l-88.847 43.6-88.847-43.6Z" stroke="#fff" stroke-width="5"/><path d="M91.087 197.215 1 153.006V46.816l90.087 44.208v106.191ZM91.913 197.215V91.025L182 46.814v106.191l-90.087 44.209ZM181.514 46.172 91.501 90.345 1.488 46.172 91.501 2l90.013 44.172Z" stroke="#fff"/></svg>