<svg width="2000" height="1549" fill="none" xmlns="http://www.w3.org/2000/svg"><path d="M1694.19 129.661C1564.73 69.088 1426.3 25.066 1281.57 0c-17.77 32.134-38.53 75.356-52.85 109.738-153.85-23.136-306.275-23.136-457.29 0C757.116 75.356 735.88 32.134 717.947 0a1623.498 1623.498 0 0 0-412.931 129.982C43.886 524.582-26.901 909.381 8.493 1288.72c173.195 129.33 341.041 207.9 506.055 259.32 40.743-56.08 77.08-115.69 108.383-178.51-59.618-22.65-116.72-50.61-170.675-83.06a850.614 850.614 0 0 0 41.842-33.1c329.085 153.92 686.642 153.92 1011.792 0 13.69 11.41 27.69 22.49 41.85 33.1-54.12 32.61-111.37 60.57-170.99 83.23 31.3 62.65 67.48 122.42 108.38 178.49 165.17-51.41 333.17-129.97 506.37-259.47 41.53-439.75-70.94-821.015-297.31-1159.059ZM667.765 1055.43c-98.788 0-179.802-92.226-179.802-204.532 0-112.307 79.284-204.69 179.802-204.69 100.52 0 181.532 92.221 179.802 204.69.156 112.306-79.282 204.532-179.802 204.532Zm664.465 0c-98.79 0-179.8-92.226-179.8-204.532 0-112.307 79.28-204.69 179.8-204.69 100.52 0 181.53 92.221 179.8 204.69 0 112.306-79.28 204.532-179.8 204.532Z" fill="#fff"/></svg>