<svg width="2200" height="1589" fill="none" xmlns="http://www.w3.org/2000/svg"><path d="M990.249 1324.02c34.371 0 65.301 27.49 65.301 65.3 0 34.37-27.5 65.3-65.301 65.3-34.368 0-65.299-27.5-65.299-65.3 0-37.81 30.931-65.3 65.299-65.3ZM2000.67 925.351c-34.37 0-65.3-27.494-65.3-65.299 0-34.368 27.49-65.299 65.3-65.299 34.36 0 65.29 27.494 65.29 65.299 0 34.368-30.93 65.299-65.29 65.299Zm0-264.633c-109.98 0-199.34 89.357-199.34 199.334 0 20.621 3.44 41.242 10.31 61.862l-656.43 350.556c-37.8-54.99-99.66-85.92-164.961-85.92-75.61 0-144.346 44.68-178.714 109.97L220.407 987.213c-61.862-34.367-109.977-134.034-103.104-230.265 3.437-48.115 20.621-85.919 44.679-99.667 17.184-10.31 34.368-6.873 58.425 3.437l3.437 3.437c158.092 82.483 670.175 350.555 690.795 360.865 34.368 13.75 51.552 20.62 109.981-6.88l1058.53-549.882c17.18-6.874 34.37-20.621 34.37-44.679 0-30.931-30.93-44.678-30.93-44.678-61.87-27.494-154.66-72.173-244.02-113.414-192.46-89.357-412.41-192.46-508.64-244.012-82.49-44.679-151.22-6.874-161.53 0l-24.06 10.31C711.869 251.74 134.487 536.994 100.119 557.614 41.694 591.982 3.889 664.155.452 753.512-6.42 894.42 65.752 1042.2 168.855 1093.75l625.497 323.06c13.747 96.23 99.666 171.84 195.897 171.84 109.981 0 195.901-85.92 199.331-195.89l687.36-371.18c34.37 27.5 79.05 41.24 123.73 41.24 109.97 0 199.33-89.354 199.33-199.331 0-113.414-89.36-202.771-199.33-202.771" fill="#fff"/></svg>