<svg width="75" height="74" fill="none" xmlns="http://www.w3.org/2000/svg"><path d="M37.5 0C16.792 0 0 16.79 0 37.5 0 54.07 10.745 68.126 25.645 73.084c1.874.347 2.562-.813 2.562-1.804 0-.894-.035-3.848-.05-6.981-10.433 2.268-12.635-4.425-12.635-4.425-1.706-4.335-4.164-5.487-4.164-5.487-3.402-2.328.257-2.28.257-2.28 3.766.265 5.748 3.865 5.748 3.865 3.345 5.733 8.773 4.075 10.913 3.117.337-2.424 1.309-4.078 2.381-5.014-8.33-.949-17.085-4.164-17.085-18.533 0-4.095 1.465-7.44 3.864-10.066-.39-.944-1.673-4.759.363-9.924 0 0 3.149-1.008 10.315 3.844 2.991-.83 6.2-1.248 9.386-1.262 3.187.014 6.398.431 9.395 1.262 7.157-4.852 10.302-3.844 10.302-3.844 2.041 5.165.757 8.98.367 9.924 2.405 2.626 3.86 5.972 3.86 10.066 0 14.403-8.773 17.574-17.123 18.503 1.345 1.163 2.543 3.446 2.543 6.944 0 5.018-.043 9.056-.043 10.291 0 .998.675 2.168 2.576 1.8C64.269 68.114 75 54.062 75 37.5 75 16.79 58.21 0 37.5 0ZM14.045 53.42c-.082.186-.376.242-.643.114-.272-.122-.424-.376-.336-.563.08-.192.374-.245.646-.117.272.123.428.38.333.566Zm1.845 1.646c-.18.166-.529.089-.766-.173-.245-.262-.291-.611-.11-.78.184-.166.524-.088.77.174.245.264.293.611.106.779Zm1.265 2.106c-.23.16-.605.01-.838-.324-.23-.333-.23-.733.005-.893.233-.16.603-.017.839.315.229.338.229.738-.006.902Zm2.14 2.439c-.205.226-.643.166-.964-.144-.327-.302-.419-.731-.212-.958.208-.227.648-.163.97.144.326.301.426.733.206.958Zm2.766.823c-.09.294-.512.427-.937.303-.424-.13-.701-.473-.616-.77.088-.295.512-.435.94-.301.423.128.701.47.613.768Zm3.148.35c.01.309-.35.565-.795.57-.449.01-.811-.24-.816-.544 0-.312.352-.566.8-.574.446-.008.811.24.811.547Zm3.092-.12c.054.303-.256.612-.699.695-.435.08-.838-.107-.893-.406-.055-.31.261-.62.696-.7.443-.076.84.105.896.412Z" fill="#fff"/></svg>