<svg width="618" height="551" fill="none" xmlns="http://www.w3.org/2000/svg"><g filter="url('#filter0_b_16_3119')"><path d="M0 18C0 8.059 8.059 0 18 0h582c9.941 0 18 8.059 18 18v313c0 121.503-98.497 220-220 220H18c-9.941 0-18-8.059-18-18V18Z" fill="url('#paint0_linear_16_3119')"/><path d="M.6 18C.6 8.39 8.39.6 18 .6h582c9.61 0 17.4 7.79 17.4 17.4v313c0 121.171-98.229 219.4-219.4 219.4H18C8.39 550.4.6 542.61.6 533V18Z" stroke="url('#paint1_linear_16_3119')" stroke-width="1.2"/></g><defs><linearGradient id="paint0_linear_16_3119" x1="-69" y1="-61.5" x2="618" y2="551" gradientUnits="userSpaceOnUse"><stop stop-color="#DB416E" stop-opacity=".6"/><stop offset="1" stop-opacity="0"/></linearGradient><linearGradient id="paint1_linear_16_3119" x1="618" y1="551" x2="0" y2="0" gradientUnits="userSpaceOnUse"><stop stop-color="#fff" stop-opacity=".6"/><stop offset="1" stop-color="#fff" stop-opacity=".1"/></linearGradient><filter id="filter0_b_16_3119" x="-50" y="-50" width="718" height="651" filterUnits="userSpaceOnUse" color-interpolation-filters="sRGB"><feFlood flood-opacity="0" result="BackgroundImageFix"/><feGaussianBlur in="BackgroundImageFix" stdDeviation="25"/><feComposite in2="SourceAlpha" operator="in" result="effect1_backgroundBlur_16_3119"/><feBlend in="SourceGraphic" in2="effect1_backgroundBlur_16_3119" result="shape"/></filter></defs></svg>