<svg width="2200" height="1250" fill="none" xmlns="http://www.w3.org/2000/svg"><path d="M1920.97 624.735v.6h.02c-.08 162.066-34.78 308.769-90.79 414.975-56.11 106.37-133.51 171.96-218.85 171.96-85.33 0-162.73-65.59-218.84-171.96-56.08-106.337-90.79-253.271-90.79-415.575s34.7-309.239 90.78-415.576c56.1-106.365 133.5-171.964 218.83-171.964 85.34 0 162.74 65.578 218.84 171.932 56.09 106.327 90.8 253.262 90.8 415.608ZM620.477.6c342.345 0 619.853 279.442 619.853 624.135S962.801 1248.85 620.477 1248.85C278.152 1248.85.6 969.428.6 624.735S278.131.6 620.477.6ZM2090.89 98.455c7.32 0 14.53 3.58 21.56 10.531 7.04 6.952 13.85 17.238 20.37 30.537 13.02 26.595 24.76 65.119 34.63 112.771 19.74 95.296 31.95 226.973 31.95 372.441 0 145.425-12.21 277.103-31.94 372.409-9.87 47.656-21.61 86.186-34.64 112.796-6.51 13.3-13.32 23.59-20.36 30.54-7.04 6.95-14.25 10.54-21.57 10.54s-14.54-3.59-21.57-10.54c-7.04-6.95-13.85-17.24-20.36-30.54-13.02-26.59-24.76-65.12-34.63-112.773-19.73-95.298-31.93-226.975-31.93-372.432 0-145.458 12.21-277.135 31.94-372.433 9.86-47.654 21.61-86.179 34.63-112.776 6.51-13.3 13.32-23.586 20.36-30.54 7.03-6.951 14.24-10.531 21.56-10.531Z" fill="#fff" stroke="#fff" stroke-width="1.2"/></svg>