<svg width="511" height="300" fill="none" xmlns="http://www.w3.org/2000/svg"><g filter="url('#filter0_b_11_499')"><path d="M0 50C0 22.386 22.386 0 50 0h411c27.614 0 50 22.386 50 50v200c0 27.614-22.386 50-50 50H50c-27.614 0-50-22.386-50-50V50Z" fill="url('#paint0_linear_11_499')"/><path d="M.6 50C.6 22.717 22.717.6 50 .6h411c27.283 0 49.4 22.117 49.4 49.4v200c0 27.283-22.117 49.4-49.4 49.4H50C22.717 299.4.6 277.283.6 250V50Z" stroke="url('#paint1_linear_11_499')" stroke-width="1.2"/></g><defs><linearGradient id="paint0_linear_11_499" x1="0" y1="0" x2="523.94" y2="275.381" gradientUnits="userSpaceOnUse"><stop stop-color="#2C6957" stop-opacity=".6"/><stop offset="1" stop-opacity=".1"/></linearGradient><linearGradient id="paint1_linear_11_499" x1="511" y1="300" x2="82.04" y2="-90.191" gradientUnits="userSpaceOnUse"><stop stop-color="#fff" stop-opacity=".6"/><stop offset="1" stop-color="#fff" stop-opacity=".1"/></linearGradient><filter id="filter0_b_11_499" x="-15" y="-15" width="541" height="330" filterUnits="userSpaceOnUse" color-interpolation-filters="sRGB"><feFlood flood-opacity="0" result="BackgroundImageFix"/><feGaussianBlur in="BackgroundImageFix" stdDeviation="7.5"/><feComposite in2="SourceAlpha" operator="in" result="effect1_backgroundBlur_11_499"/><feBlend in="SourceGraphic" in2="effect1_backgroundBlur_11_499" result="shape"/></filter></defs></svg>