<svg width="2000" height="1626" fill="none" xmlns="http://www.w3.org/2000/svg"><path d="M2000 192.406c-73.59 32.635-152.67 54.692-235.67 64.611 84.72-50.784 149.78-131.197 180.42-227.009-79.28 47.017-167.1 81.167-260.56 99.572C1609.33 49.834 1502.7 0 1384.68 0c-226.61 0-410.336 183.716-410.336 410.315 0 32.159 3.636 63.477 10.63 93.507C643.952 486.711 341.607 323.355 139.23 75.109c-35.32 60.602-55.555 131.087-55.555 206.284 0 142.353 72.446 267.947 182.545 341.527-67.266-2.129-130.531-20.586-185.859-51.319-.029 1.712-.029 3.431-.029 5.158 0 198.807 141.439 364.651 329.149 402.34-34.434 9.379-70.683 14.39-108.109 14.39-26.439 0-52.146-2.568-77.194-7.359 52.211 163.02 203.745 281.65 383.298 284.96-140.429 110.05-317.356 175.65-509.594 175.65-33.117 0-65.781-1.94-97.882-5.73 181.587 116.42 397.271 184.35 628.992 184.35 754.728 0 1167.448-625.24 1167.448-1167.465 0-17.791-.4-35.487-1.19-53.081 80.17-57.852 149.74-130.122 204.75-212.408Z" fill="#fff"/></svg>