<svg width="5062" height="5032" fill="none" xmlns="http://www.w3.org/2000/svg"><g clip-path="url('#clip0_225_78')"><path d="M3861 1275 2156 4055 481 1275h3380Z" fill="#fff"/><path d="M2090 2273.19c42.79-13.24 66.83-13.57 110 0v250c-45.15 13.13-65.13 13.69-110 0v-250Z" fill="#FFD41D"/><path d="M2090 1903.18s63-3.5 90 20c27 23.51 20 350 20 350-42.47-13.39-66.2-13.42-110 0v-370ZM2199.82 2893.19s-63 3.5-90-20c-27-23.51-20-350-20-350 42.46 13.39 66.2 13.42 110 0v370Z" fill="#000"/><path d="m3180.93 2821.24-410 1570-570-985 980-585ZM1140.93 2831.24.932 1681.24H1140.94l-.01 1150ZM2150.93 1061.24l1580-420.003-580 990.003-1000-570Z" fill="#33D7E4"/><path d="M3160.93 1671.24h1900l-2880 1690 980-1690ZM1170.93 1651.24 220.93 1.237l2900 1650.003h-1950ZM2140.93 3386.24l-970 1645v-3330l970 1685Z" fill="#EE2B6D"/><path d="M2390.35 998c-62.32 108.58 99.8 196.45 711 413.5l50 220-1000-570 239-63.5ZM966.346 2655c125.104-4.69 144.814-184.66 5-818l170.004-155.5v1150L966.346 2655ZM3120.85 3053c-59.07-110.39-191.55 5.2-699.5 408.5l-220-55 980-585-60.5 231.5Z" fill="#133E6D"/><path d="m3066 1702-835 1450 .09-225M2050.5 1872H2166l65.5 60-.41 995M2050.5 1872v990l66.5 65h114.09M2050.5 1872v-170l-814.5-1" stroke="#000" stroke-width="16"/><path d="M605 219.5C346.857 339.617 830.432 781.817 1281 1476l-110 175L221 1l384 218.5ZM1171 4594c233.1 163.5 384.1-475.71 760-1213l210 5-970 1645v-437ZM4681 1894c25.05-283.62-593.54-86.11-1420-43l-100-180h1900l-380 223Z" fill="#17EBB1"/><path d="M3319.48 4387.95c164.84 0 298.47-133.63 298.47-298.47 0-164.85-133.63-298.48-298.47-298.48-164.85 0-298.48 133.63-298.48 298.48 0 164.84 133.63 298.47 298.48 298.47Z" fill="#fff"/><path d="M3319.48 4327.04c131.2 0 237.56-106.36 237.56-237.56 0-131.21-106.36-237.57-237.56-237.57-131.21 0-237.57 106.36-237.57 237.57 0 131.2 106.36 237.56 237.57 237.56Z" fill="#000"/><path d="M3319.48 4256.99c92.51 0 167.51-75 167.51-167.51 0-92.52-75-167.52-167.51-167.52-92.52 0-167.52 75-167.52 167.52 0 92.51 75 167.51 167.52 167.51Z" fill="#fff"/><path d="M3319.48 4180.85c50.46 0 91.37-40.91 91.37-91.37 0-50.47-40.91-91.37-91.37-91.37-50.47 0-91.37 40.9-91.37 91.37 0 50.46 40.9 91.37 91.37 91.37Z" fill="#000"/><path d="M3508.31 4049.88h-137.06v76.15h137.06v-76.15Z" fill="#000"/></g><defs><clipPath id="clip0_225_78"><path fill="#fff" d="M0 0h5062v5032H0z"/></clipPath></defs></svg>